<svg xmlns="http://www.w3.org/2000/svg" viewBox="0 0 326.62 50.38"><title>Lawfare</title><g><path d="M6.89,2.87V42H20.31v6.48H0V2.87Z" fill="#006a72"/><path d="M67.11,37.43H47.56L42.48,48.52H35.06L57.65,0,79.44,48.52H71.9ZM64.3,31,57.53,15.43,50.43,31Z" fill="#006a72"/><path d="M181.44,9.34h-15.9v11h15.34v6.48H165.54V48.53h-6.89V2.87h22.79Z" fill="#006a72"/><path d="M225.13,37.43H205.59L200.5,48.52h-7.42L215.67,0l21.79,48.52h-7.54ZM222.32,31l-6.77-15.53L208.45,31Z" fill="#006a72"/><path d="M269.53,29.07l14.14,19.45h-8.43l-13-18.69H261V48.52h-6.89V2.87h8.07q9,0,13.07,3.4a12.47,12.47,0,0,1,4.43,10,13,13,0,0,1-2.78,8.34A12.39,12.39,0,0,1,269.53,29.07ZM261,23.83h2.18q9.8,0,9.79-7.48,0-7-9.52-7H261Z" fill="#006a72"/><path d="M326.62,9.34H308.31v11h17.78v6.48H308.31V42h18.31v6.48h-25.2V2.87h25.2Z" fill="#006a72"/><path d="M84.39,1.84h7.48q5.86,15,11.72,30.12l0,0q2.83-7.66,5.66-15.35l-5.7-14.74H111l1.87,5h0l1.82-5h7.42l-5.57,14.7,5.83,15.57h0L134.2,1.84l7.48,0Q132,26.1,122.31,50.36,117.65,38.27,113,26.17l0,0q-4.58,12.1-9.14,24.19h0Q94.09,26.11,84.39,1.84Z" fill="#006a72"/></g></svg>